<svg width="24" height="25" viewBox="0 0 24 25" fill="none" xmlns="http://www.w3.org/2000/svg">
<rect width="24" height="24" transform="translate(0 0.339844)" fill="#3E57DA"/>
<g clip-path="url(#clip0_22_4899)">
<g clip-path="url(#clip1_22_4899)">
<path d="M17.7566 10.9173C17.5347 10.6859 17.3052 10.4467 17.2185 10.2371C17.1389 10.0446 17.1341 9.72564 17.1294 9.41716C17.1207 8.84312 17.1109 8.1925 16.6586 7.74018C16.2063 7.28786 15.5556 7.27803 14.9816 7.26936C14.6731 7.2647 14.3541 7.25988 14.1617 7.1802C13.9521 7.09352 13.7128 6.86409 13.4814 6.64218C13.075 6.25235 12.6142 5.81055 12 5.81055C11.3857 5.81055 10.925 6.25235 10.5185 6.64218C10.2871 6.86409 10.0479 7.09352 9.83833 7.1802C9.64578 7.25988 9.32684 7.2647 9.01836 7.26936C8.44432 7.27803 7.79369 7.28786 7.34137 7.74018C6.88905 8.1925 6.87923 8.84312 6.87056 9.41716C6.8659 9.72564 6.86108 10.0446 6.7814 10.2371C6.69472 10.4467 6.46529 10.6859 6.24338 10.9173C5.85355 11.3238 5.41174 11.7845 5.41174 12.3988C5.41174 13.013 5.85355 13.4737 6.24338 13.8802C6.46529 14.1116 6.69472 14.3508 6.7814 14.5605C6.86108 14.7529 6.8659 15.0719 6.87056 15.3804C6.87923 15.9545 6.88905 16.6051 7.34137 17.0574C7.79369 17.5097 8.44432 17.5195 9.01836 17.5282C9.32684 17.5329 9.64578 17.5377 9.83833 17.6173C10.0479 17.704 10.2871 17.9335 10.5185 18.1554C10.925 18.5452 11.3857 18.987 12 18.987C12.6142 18.987 13.0749 18.5452 13.4814 18.1554C13.7128 17.9335 13.952 17.704 14.1617 17.6173C14.3541 17.5377 14.6731 17.5329 14.9816 17.5282C15.5556 17.5195 16.2063 17.5097 16.6586 17.0574C17.1109 16.6051 17.1207 15.9545 17.1294 15.3804C17.1341 15.0719 17.1389 14.7529 17.2185 14.5605C17.3052 14.3509 17.5347 14.1116 17.7566 13.8802C18.1464 13.4738 18.5882 13.013 18.5882 12.3988C18.5882 11.7845 18.1464 11.3238 17.7566 10.9173ZM14.9131 11.3274L11.4621 14.6216C11.3746 14.7051 11.2582 14.7517 11.1372 14.7517C11.0162 14.7517 10.8998 14.7051 10.8123 14.6216L9.08684 12.9745C9.04211 12.9318 9.00622 12.8808 8.98122 12.8242C8.95623 12.7677 8.94261 12.7068 8.94116 12.645C8.93971 12.5832 8.95045 12.5217 8.97276 12.4641C8.99507 12.4065 9.02852 12.3538 9.0712 12.3091C9.11388 12.2643 9.16495 12.2285 9.22149 12.2035C9.27803 12.1785 9.33894 12.1649 9.40074 12.1635C9.46254 12.1621 9.52401 12.1728 9.58164 12.1952C9.63928 12.2175 9.69195 12.251 9.73665 12.2937L11.1372 13.6306L14.2633 10.6466C14.308 10.6039 14.3606 10.5704 14.4183 10.5481C14.4759 10.5258 14.5374 10.515 14.5992 10.5164C14.6611 10.5179 14.722 10.5315 14.7784 10.5564C14.835 10.5814 14.8861 10.6173 14.9287 10.662C14.9715 10.7067 15.0049 10.7594 15.0272 10.817C15.0495 10.8747 15.0602 10.9362 15.0588 10.998C15.0573 11.0598 15.0437 11.1207 15.0187 11.1772C14.9938 11.2337 14.9578 11.2848 14.9131 11.3274Z" fill="white"/>
</g>
</g>
<defs>
<clipPath id="clip0_22_4899">
<rect width="16" height="16" fill="white" transform="translate(4 4.33984)"/>
</clipPath>
<clipPath id="clip1_22_4899">
<rect width="16" height="16" fill="white" transform="translate(4 4.33984)"/>
</clipPath>
</defs>
</svg>
