<svg width="25" height="25" viewBox="0 0 25 25" fill="none" xmlns="http://www.w3.org/2000/svg">
<rect width="24" height="24" transform="translate(0.5 0.339844)" fill="#00CEE0"/>
<g clip-path="url(#clip0_22_4910)">
<g clip-path="url(#clip1_22_4910)">
<g clip-path="url(#clip2_22_4910)">
<path d="M17.5 9.33984H15.25V7.58984C15.25 6.8605 14.9602 6.16102 14.4445 5.6453C13.9288 5.12957 13.2294 4.83984 12.5 4.83984C11.7706 4.83984 11.0712 5.12957 10.5554 5.6453C10.0398 6.16102 9.75 6.8605 9.75 7.58984V9.33984H7.5C7.23487 9.34014 6.9807 9.44559 6.79323 9.63309C6.60576 9.82054 6.5003 10.0747 6.5 10.3398V17.3398C6.5003 17.6049 6.60576 17.8591 6.79323 18.0466C6.9807 18.2341 7.23487 18.3395 7.5 18.3398H17.5C17.7651 18.3395 18.0193 18.2341 18.2067 18.0466C18.3942 17.8591 18.4997 17.6049 18.5 17.3398V10.3398C18.4997 10.0747 18.3942 9.82054 18.2067 9.63309C18.0193 9.44559 17.7651 9.34014 17.5 9.33984ZM12.4997 14.5898C12.3513 14.5898 12.2063 14.5458 12.083 14.4634C11.9596 14.381 11.8635 14.2639 11.8067 14.1268C11.75 13.9898 11.7351 13.839 11.7641 13.6935C11.793 13.548 11.8644 13.4144 11.9693 13.3095C12.0742 13.2046 12.2078 13.1332 12.3533 13.1042C12.4988 13.0753 12.6496 13.0902 12.7866 13.1469C12.9237 13.2037 13.0408 13.2998 13.1233 13.4231C13.2056 13.5465 13.2497 13.6915 13.2497 13.8398C13.2497 13.9383 13.2302 14.0358 13.1925 14.1268C13.1548 14.2178 13.0996 14.3005 13.03 14.3702C12.9603 14.4398 12.8776 14.495 12.7866 14.5327C12.6956 14.5704 12.5981 14.5898 12.4997 14.5898ZM14.25 9.33984H10.75V7.58984C10.75 7.12571 10.9344 6.68059 11.2625 6.35241C11.5907 6.02422 12.0359 5.83984 12.5 5.83984C12.9641 5.83984 13.4092 6.02422 13.7374 6.35241C14.0656 6.68059 14.25 7.12571 14.25 7.58984V9.33984Z" fill="white"/>
</g>
</g>
</g>
<defs>
<clipPath id="clip0_22_4910">
<rect width="16" height="16" fill="white" transform="translate(4.5 4.33984)"/>
</clipPath>
<clipPath id="clip1_22_4910">
<rect width="16" height="16" fill="white" transform="translate(4.5 4.33984)"/>
</clipPath>
<clipPath id="clip2_22_4910">
<rect width="16" height="16" fill="white" transform="translate(4.5 4.33984)"/>
</clipPath>
</defs>
</svg>
