<svg width="24" height="25" viewBox="0 0 24 25" fill="none" xmlns="http://www.w3.org/2000/svg">
<rect width="24" height="24" transform="translate(0 0.339844)" fill="#86CB3C"/>
<g clip-path="url(#clip0_22_4920)">
<g clip-path="url(#clip1_22_4920)">
<path d="M19.4569 12.1363C19.4349 12.0869 18.9057 10.9128 17.7285 9.73559C16.1608 8.16766 14.1798 7.33887 12 7.33887C9.8201 7.33887 7.83915 8.16766 6.27141 9.73559C5.09429 10.9128 4.56505 12.0869 4.54308 12.1363C4.51468 12.2002 4.5 12.2694 4.5 12.3393C4.5 12.4093 4.51468 12.4785 4.54308 12.5424C4.56505 12.5918 5.09435 13.7657 6.27147 14.9427C7.83922 16.5102 9.8201 17.3388 12 17.3388C14.1798 17.3388 16.1608 16.5102 17.7285 14.9427C18.9057 13.7657 19.4349 12.5918 19.4569 12.5424C19.4853 12.4785 19.5 12.4093 19.5 12.3393C19.5 12.2694 19.4853 12.2002 19.4569 12.1363ZM12 10.0894C12.445 10.0894 12.88 10.2214 13.25 10.4686C13.6201 10.7158 13.9084 11.0672 14.0787 11.4784C14.249 11.8895 14.2935 12.3419 14.2067 12.7784C14.12 13.2148 13.9057 13.6157 13.591 13.9304C13.2763 14.2451 12.8754 14.4593 12.4389 14.5462C12.0025 14.633 11.5501 14.5884 11.1389 14.4181C10.7278 14.2478 10.3764 13.9594 10.1292 13.5894C9.88195 13.2194 9.75 12.7844 9.75 12.3394C9.75065 11.7429 9.98795 11.171 10.4097 10.7491C10.8316 10.3273 11.4035 10.0901 12 10.0894Z" fill="white"/>
</g>
</g>
<defs>
<clipPath id="clip0_22_4920">
<rect width="16" height="16" fill="white" transform="translate(4 4.33984)"/>
</clipPath>
<clipPath id="clip1_22_4920">
<rect width="16" height="16" fill="white" transform="translate(4 4.33984)"/>
</clipPath>
</defs>
</svg>
