<svg width="25" height="25" viewBox="0 0 25 25" fill="none" xmlns="http://www.w3.org/2000/svg">
<rect width="24" height="24" transform="translate(0.5 0.339844)" fill="#E585D7"/>
<g clip-path="url(#clip0_22_4930)">
<g clip-path="url(#clip1_22_4930)">
<path d="M18.8904 14.5275C18.9492 14.6011 18.9861 14.6897 18.9967 14.7833C19.0074 14.8769 18.9914 14.9715 18.9506 15.0564C18.9098 15.1413 18.8459 15.2129 18.7662 15.2631C18.6865 15.3132 18.5941 15.3398 18.5 15.3398H7.5V17.8398C7.5 17.9724 7.44732 18.0996 7.35355 18.1934C7.25978 18.2871 7.13261 18.3398 7 18.3398C6.86739 18.3398 6.74022 18.2871 6.64645 18.1934C6.55268 18.0996 6.5 17.9724 6.5 17.8398V7.33984C6.5 7.20724 6.55269 7.08006 6.64646 6.9863C6.74022 6.89253 6.86739 6.83985 7 6.83984H18.5C18.5941 6.83985 18.6865 6.86645 18.7662 6.91658C18.8459 6.96672 18.9098 7.03836 18.9506 7.12324C18.9914 7.20812 19.0074 7.3028 18.9967 7.39637C18.9861 7.48995 18.9492 7.57861 18.8904 7.65216L16.1403 11.0898L18.8904 14.5275Z" fill="white"/>
</g>
</g>
<defs>
<clipPath id="clip0_22_4930">
<rect width="16" height="16" fill="white" transform="translate(4.5 4.33984)"/>
</clipPath>
<clipPath id="clip1_22_4930">
<rect width="16" height="16" fill="white" transform="translate(4.5 4.33984)"/>
</clipPath>
</defs>
</svg>
