<svg width="25" height="24" viewBox="0 0 25 24" fill="none" xmlns="http://www.w3.org/2000/svg">
<mask id="mask0_22_3742" style="mask-type:luminance" maskUnits="userSpaceOnUse" x="1" y="0" width="24" height="24">
<path d="M24.16 0.47998H1.12002V23.52H24.16V0.47998Z" fill="white"/>
</mask>
<g mask="url(#mask0_22_3742)">
<path d="M12.64 23.52C19.0023 23.52 24.16 18.3623 24.16 12C24.16 5.63766 19.0023 0.47998 12.64 0.47998C6.27769 0.47998 1.12002 5.63766 1.12002 12C1.12002 18.3623 6.27769 23.52 12.64 23.52Z" fill="#081D47" fill-opacity="0.3"/>
<path d="M17.6321 9.31274H15.6737C15.7121 9.00554 15.9041 8.81354 16.2881 8.62154L16.6337 8.42954C17.2865 8.12234 17.6321 7.73834 17.6321 7.12394C17.6366 6.94829 17.601 6.77392 17.5278 6.61418C17.4545 6.45445 17.3457 6.31358 17.2097 6.20234C16.8888 5.99762 16.5152 5.89087 16.1345 5.89514C15.825 5.89324 15.5205 5.97269 15.2513 6.12554C14.9997 6.29376 14.7896 6.51699 14.6369 6.77834L15.2129 7.35434C15.2936 7.16508 15.4271 7.00296 15.5973 6.88725C15.7674 6.77153 15.9672 6.70708 16.1729 6.70154C16.5569 6.70154 16.7489 6.89354 16.7489 7.12394C16.7489 7.35434 16.6337 7.54634 16.2497 7.73834L16.0193 7.85354C15.5866 8.0436 15.2146 8.34918 14.9441 8.73674C14.7308 9.11037 14.6245 9.53551 14.6369 9.96559V10.1192H17.6321V9.31274Z" fill="white"/>
<path d="M17.363 11.0776H14.099L12.4862 13.8808H15.7502L17.363 16.684L18.9758 13.8808L17.363 11.0776Z" fill="white"/>
<path d="M12.7555 15.7632C11.7574 15.7632 10.8003 15.3668 10.0945 14.6611C9.38875 13.9553 8.99227 12.9981 8.99227 12C8.99227 11.002 9.38875 10.0448 10.0945 9.33905C10.8003 8.63331 11.7574 8.23683 12.7555 8.23683L14.0611 5.54883C13.6303 5.47071 13.1933 5.43216 12.7555 5.43363C11.014 5.43363 9.34377 6.12545 8.11233 7.35689C6.88089 8.58833 6.18908 10.2585 6.18908 12C6.18908 13.7416 6.88089 15.4118 8.11233 16.6432C9.34377 17.8747 11.014 18.5664 12.7555 18.5664C14.145 18.5725 15.5014 18.1428 16.6339 17.3376L15.2131 14.8416C14.5328 15.4368 13.6593 15.7644 12.7555 15.7632Z" fill="white"/>
</g>
</svg>
