<svg width="20" height="20" viewBox="0 0 20 20" fill="none" xmlns="http://www.w3.org/2000/svg">
<g clip-path="url(#clip0_22_4944)">
<path d="M16 0.185059H4.00002C2.0118 0.185059 0.400024 1.79683 0.400024 3.78506V15.7851C0.400024 17.7733 2.0118 19.3851 4.00002 19.3851H16C17.9883 19.3851 19.6 17.7733 19.6 15.7851V3.78506C19.6 1.79683 17.9883 0.185059 16 0.185059Z" fill="#3E57DA"/>
<path d="M5.30248 14.5851H13.322C15.2976 14.5851 16.5561 13.3705 16.7611 11.5119L17.1708 7.66314H14.4049L14.0244 11.1754C13.9805 11.6438 13.6877 11.9071 13.2049 11.9071H5.56591L5.30248 14.5851ZM5.56591 11.9071L5.94637 8.39483C5.99031 7.92646 6.283 7.66314 6.76592 7.66314H14.4049L14.6684 4.98511H6.64878C4.67316 4.98511 3.41463 6.1998 3.20971 8.05827L2.79999 11.9071H5.56591Z" fill="white"/>
</g>
<defs>
<clipPath id="clip0_22_4944">
<rect width="20" height="20" fill="white"/>
</clipPath>
</defs>
</svg>
