<svg width="16" height="17" viewBox="0 0 16 17" fill="none" xmlns="http://www.w3.org/2000/svg">
<mask id="mask0_22_5688" style="mask-type:luminance" maskUnits="userSpaceOnUse" x="0" y="0" width="16" height="17">
<path d="M16 0.730469H0V16.7305H16V0.730469Z" fill="white"/>
</mask>
<g mask="url(#mask0_22_5688)">
<path d="M14.8156 0.730469H1.18125C0.528125 0.730469 0 1.24609 0 1.8836V15.5743C0 16.2118 0.528125 16.7305 1.18125 16.7305H14.8156C15.4688 16.7305 16 16.2118 16 15.5774V1.8836C16 1.24609 15.4688 0.730469 14.8156 0.730469ZM4.74687 14.3649H2.37188V6.72734H4.74687V14.3649ZM3.55938 5.68672C2.79688 5.68672 2.18125 5.07109 2.18125 4.31172C2.18125 3.55235 2.79688 2.93672 3.55938 2.93672C4.31875 2.93672 4.93437 3.55235 4.93437 4.31172C4.93437 5.06797 4.31875 5.68672 3.55938 5.68672ZM13.6344 14.3649H11.2625V10.6523C11.2625 9.76797 11.2469 8.62734 10.0281 8.62734C8.79375 8.62734 8.60625 9.59297 8.60625 10.5898V14.3649H6.2375V6.72734H8.5125V7.7711H8.54375C8.85937 7.1711 9.63438 6.53672 10.7875 6.53672C13.1906 6.53672 13.6344 8.11797 13.6344 10.1742V14.3649Z" fill="white"/>
</g>
</svg>
