<svg width="199" height="33" viewBox="0 0 199 33" fill="none" xmlns="http://www.w3.org/2000/svg">
<g clip-path="url(#clip0_22_5513)">
<path d="M184.646 16.7882C184.646 13.4045 186.451 11.1109 189.045 11.1109C191.978 11.1109 193.708 13.2539 193.708 16.7882C193.708 20.3226 191.978 22.503 189.045 22.503C186.451 22.5033 184.646 20.1722 184.646 16.7882ZM188.068 26.5638C190.512 26.5638 192.392 25.5486 193.708 23.8569L194.083 26.1879H198.332V7.38881H194.083L193.708 9.71989C192.392 8.0279 190.512 7.01299 188.068 7.01299C183.03 7.01299 179.759 11.2615 179.759 16.7885C179.759 22.3155 183.03 26.5638 188.068 26.5638ZM172.164 5.3575H176.902V0.733098H172.164V5.3575ZM172.164 26.1876H176.902V7.38881H172.164V26.1876ZM161.787 26.5638C166.6 26.5638 169.607 24.1575 169.607 20.3603C169.607 17.5405 168.141 15.7359 165.246 15.1717L160.922 14.382C159.456 14.1188 158.779 13.5549 158.779 12.5774C158.779 11.487 159.945 10.7728 161.637 10.7728C163.329 10.7728 164.532 11.5625 164.833 12.6903H169.307C168.968 9.23144 166.036 7.01299 161.712 7.01299C157.05 7.01299 154.155 9.30631 154.155 12.9158C154.155 15.7356 155.922 17.7283 159.155 18.3673L163.479 19.157C164.457 19.3451 164.983 19.9467 164.983 20.7738C164.983 22.0523 163.818 22.8042 161.825 22.8042C159.794 22.8042 158.516 21.9019 158.253 20.3603H153.553C153.779 24.195 156.937 26.5638 161.787 26.5638ZM138.665 14.6452C139.079 12.3893 140.959 10.7728 143.177 10.7728C145.583 10.7728 147.087 12.1264 147.501 14.6452H138.665ZM143.177 26.5638C147.914 26.5638 151.373 24.0824 151.674 20.3603H147.313C146.937 21.8265 145.508 22.8042 143.177 22.8042C140.733 22.8042 138.59 20.7738 138.553 17.9918H151.937C151.937 17.6534 151.975 17.315 151.975 16.6759C151.975 10.7354 148.591 7.01326 143.177 7.01326C137.801 7.01326 134.041 10.9611 134.041 16.7888C134.041 22.6165 137.801 26.5638 143.177 26.5638ZM114.678 26.1876H119.415V15.322C119.415 12.7655 121.032 11.1112 123.212 11.1112C125.28 11.1112 126.671 12.54 126.671 15.0214V26.1879H131.408V14.4572C131.408 9.90794 128.889 7.0127 124.942 7.0127C122.535 7.0127 120.58 7.99017 119.415 9.64443V0.731445H114.678V26.1876ZM107.459 26.1876H111.971V22.2775H109.151C108.174 22.2775 107.459 21.5633 107.459 20.5855V11.299H111.971V7.38881H107.459V1.8647H102.722V7.38881H99.5262V11.299H102.722V21.4504C102.722 24.195 104.715 26.1876 107.459 26.1876ZM80.9906 26.1876H85.7277V15.322C85.7277 12.7655 87.3447 11.1112 89.5251 11.1112C91.593 11.1112 92.9839 12.54 92.9839 15.0214V26.1879H97.7212V14.4572C97.7212 9.90794 95.2021 7.0127 91.2546 7.0127C88.7731 7.0127 86.7804 8.06534 85.6149 9.8325L85.2389 7.38854H80.9906V26.1876ZM62.5678 32.7298H67.3427C69.2981 32.7298 70.9522 31.5267 71.5537 29.6846L78.9227 7.3891H73.9221L70.0119 20.3603L66.1017 7.3891H61.1767L67.5307 26.6015C67.9067 27.6919 67.3054 28.8575 66.0268 28.8575H62.5681L62.5678 32.7298ZM52.9429 26.5638C57.7552 26.5638 60.7631 24.1575 60.7631 20.3603C60.7631 17.5405 59.297 15.7359 56.4017 15.1717L52.0779 14.382C50.6119 14.1188 49.9351 13.5549 49.9351 12.5774C49.9351 11.487 51.1006 10.7728 52.7925 10.7728C54.4845 10.7728 55.6876 11.5625 55.9884 12.6903H60.4626C60.1242 9.23144 57.1915 7.01299 52.8677 7.01299C48.2056 7.01299 45.3105 9.30631 45.3105 12.9158C45.3105 15.7356 47.0776 17.7283 50.3111 18.3673L54.6349 19.157C55.6124 19.3451 56.1388 19.9467 56.1388 20.7738C56.1388 22.0523 54.9732 22.8042 52.9805 22.8042C50.9502 22.8042 49.6719 21.9019 49.4087 20.3603H44.709C44.9345 24.195 48.0925 26.5638 52.9429 26.5638Z" fill="white"/>
<path d="M6.42429 28.7611H27.0117C32.0835 28.7611 35.3142 25.6429 35.8403 20.8716L36.8923 10.9911H29.7916L28.8148 20.0077C28.702 21.21 27.9509 21.886 26.7109 21.886H7.10055L6.42429 28.7611ZM7.10055 21.886L8.07727 12.8694C8.19007 11.6671 8.94144 10.9911 10.1812 10.9911H29.7916L30.4681 4.11621H9.88046C4.80872 4.11621 1.57787 7.23453 1.05182 12.0055L0 21.886H7.10055Z" fill="white"/>
</g>
<defs>
<clipPath id="clip0_22_5513">
<rect width="198.39" height="31.9984" fill="white" transform="translate(0 0.731445)"/>
</clipPath>
</defs>
</svg>
