<svg width="16" height="17" viewBox="0 0 16 17" fill="none" xmlns="http://www.w3.org/2000/svg">
<path d="M15.8406 5.52969C15.8406 5.52969 15.6844 4.42656 15.2031 3.94219C14.5938 3.30469 13.9125 3.30156 13.6 3.26406C11.3625 3.10156 8.00313 3.10156 8.00313 3.10156H7.99687C7.99687 3.10156 4.6375 3.10156 2.4 3.26406C2.0875 3.30156 1.40625 3.30469 0.796875 3.94219C0.315625 4.42656 0.1625 5.52969 0.1625 5.52969C0.1625 5.52969 0 6.82656 0 8.12031V9.33281C0 10.6266 0.159375 11.9235 0.159375 11.9235C0.159375 11.9235 0.315625 13.0266 0.79375 13.511C1.40313 14.1485 2.20313 14.1266 2.55938 14.1953C3.84063 14.3172 8 14.3547 8 14.3547C8 14.3547 11.3625 14.3485 13.6 14.1891C13.9125 14.1516 14.5938 14.1485 15.2031 13.511C15.6844 13.0266 15.8406 11.9235 15.8406 11.9235C15.8406 11.9235 16 10.6297 16 9.33281V8.12031C16 6.82656 15.8406 5.52969 15.8406 5.52969ZM6.34688 10.8047V6.30781L10.6687 8.56406L6.34688 10.8047Z" fill="white"/>
</svg>
