<svg width="22" height="16" viewBox="0 0 22 16" fill="none" xmlns="http://www.w3.org/2000/svg">
<mask id="mask0_22_4669" style="mask-type:luminance" maskUnits="userSpaceOnUse" x="0" y="0" width="22" height="16">
<path d="M17.9414 0.236115H4.13468C2.1273 0.236115 0.5 1.86342 0.5 3.87079V11.6558C0.5 13.6631 2.1273 15.2904 4.13468 15.2904H17.9414C19.9488 15.2904 21.5761 13.6631 21.5761 11.6558V3.87079C21.5761 1.86342 19.9488 0.236115 17.9414 0.236115Z" fill="white"/>
</mask>
<g mask="url(#mask0_22_4669)">
<path d="M17.9414 0.236115H4.13468C2.1273 0.236115 0.5 1.86342 0.5 3.87079V11.6558C0.5 13.6631 2.1273 15.2904 4.13468 15.2904H17.9414C19.9488 15.2904 21.5761 13.6631 21.5761 11.6558V3.87079C21.5761 1.86342 19.9488 0.236115 17.9414 0.236115Z" fill="white"/>
<path fill-rule="evenodd" clip-rule="evenodd" d="M0.5 0.236115H9.5326V7.26147H0.5V0.236115Z" fill="#1A47B8"/>
<path fill-rule="evenodd" clip-rule="evenodd" d="M9.5326 0.236115V1.23974H21.5761V0.236115H9.5326ZM9.5326 2.24336V3.24698H21.5761V2.24336H9.5326ZM9.5326 4.2506V5.25422H21.5761V4.2506H9.5326ZM9.5326 6.25785V7.26146H21.5761V6.25785H9.5326ZM0.5 8.26509V9.26871H21.5761V8.26509H0.5ZM0.5 10.2723V11.276H21.5761V10.2723H0.5ZM0.5 12.2795V13.2832H21.5761V12.2795H0.5ZM0.5 14.2868V15.2904H21.5761V14.2868H0.5Z" fill="#F93939"/>
<path fill-rule="evenodd" clip-rule="evenodd" d="M1.50338 1.23972V2.24334H2.507V1.23972H1.50338ZM3.51062 1.23972V2.24334H4.51425V1.23972H3.51062ZM5.51786 1.23972V2.24334H6.52149V1.23972H5.51786ZM7.52511 1.23972V2.24334H8.52873V1.23972H7.52511ZM6.52149 2.24334V3.24696H7.52511V2.24334H6.52149ZM4.51425 2.24334V3.24696H5.51786V2.24334H4.51425ZM2.507 2.24334V3.24696H3.51062V2.24334H2.507ZM1.50338 3.24696V4.25058H2.507V3.24696H1.50338ZM3.51062 3.24696V4.25058H4.51425V3.24696H3.51062ZM5.51786 3.24696V4.25058H6.52149V3.24696H5.51786ZM7.52511 3.24696V4.25058H8.52873V3.24696H7.52511ZM1.50338 5.25421V6.25782H2.507V5.25421H1.50338ZM3.51062 5.25421V6.25782H4.51425V5.25421H3.51062ZM5.51786 5.25421V6.25782H6.52149V5.25421H5.51786ZM7.52511 5.25421V6.25782H8.52873V5.25421H7.52511ZM6.52149 4.25058V5.25421H7.52511V4.25058H6.52149ZM4.51425 4.25058V5.25421H5.51786V4.25058H4.51425ZM2.507 4.25058V5.25421H3.51062V4.25058H2.507Z" fill="white"/>
</g>
</svg>
