<svg width="22" height="16" viewBox="0 0 22 16" fill="none" xmlns="http://www.w3.org/2000/svg">
<path d="M18.1626 0.236115H4.35592C2.34854 0.236115 0.721241 1.86342 0.721241 3.87079V11.6558C0.721241 13.6631 2.34854 15.2904 4.35592 15.2904H18.1626C20.17 15.2904 21.7973 13.6631 21.7973 11.6558V3.87079C21.7973 1.86342 20.17 0.236115 18.1626 0.236115Z" fill="#F93939"/>
<path d="M19.7901 0.236115H2.72849C1.61991 0.236115 0.721241 1.13479 0.721241 2.24336V13.2832C0.721241 14.3918 1.61991 15.2904 2.72849 15.2904H19.7901C20.8987 15.2904 21.7973 14.3918 21.7973 13.2832V2.24336C21.7973 1.13479 20.8987 0.236115 19.7901 0.236115Z" fill="#F93939"/>
<path fill-rule="evenodd" clip-rule="evenodd" d="M0.721241 4.25055H21.7973V11.2759H0.721241V4.25055Z" fill="#FFDA2C"/>
<path fill-rule="evenodd" clip-rule="evenodd" d="M9.75286 6.48063V9.00975C9.75286 9.7123 9.07842 10.2743 8.24742 10.2743H6.24018C5.41119 10.2723 4.73475 9.70731 4.73475 9.00775V6.47862C4.73475 5.90454 5.18437 5.42482 5.8026 5.26925C5.98928 4.74737 6.56334 5.21505 7.2438 5.21505C7.92827 5.21505 8.49833 4.75038 8.68501 5.27026C9.30123 5.42983 9.75286 5.91056 9.75286 6.48063Z" fill="#D4AF2C"/>
<path fill-rule="evenodd" clip-rule="evenodd" d="M9.7531 7.26135H10.7567V10.2722H9.7531V7.26135ZM3.73137 7.26135H4.735V10.2722H3.73137V7.26135Z" fill="#CBCBCB"/>
<path fill-rule="evenodd" clip-rule="evenodd" d="M9.7531 9.2688H10.7567V10.2724H9.7531V9.2688ZM3.73137 9.2688H4.735V10.2724H3.73137V9.2688Z" fill="#1A47B8"/>
<path fill-rule="evenodd" clip-rule="evenodd" d="M9.7531 6.25775H10.7567V7.26138H9.7531V6.25775ZM3.73137 6.25775H4.735V7.26138H3.73137V6.25775Z" fill="#D4AF2C"/>
<path fill-rule="evenodd" clip-rule="evenodd" d="M5.73812 6.25775H6.74175V7.76318H5.73812V6.25775ZM7.74537 8.26499H8.74899V9.77044H7.74537V8.26499Z" fill="#AF010D"/>
<path fill-rule="evenodd" clip-rule="evenodd" d="M5.73812 8.26495H6.74175V9.77043H5.73812V8.26495Z" fill="#FFDA2C"/>
<path fill-rule="evenodd" clip-rule="evenodd" d="M7.74488 6.25775H8.7485V7.76318H7.74488V6.25775Z" fill="#AE6A3E"/>
<path fill-rule="evenodd" clip-rule="evenodd" d="M6.74175 6.25778L5.73812 5.25415H8.74899L7.74537 6.25778H6.74175Z" fill="#AF010D"/>
<path fill-rule="evenodd" clip-rule="evenodd" d="M6.7415 4.25055H7.74513V5.25417H6.7415V4.25055Z" fill="#D4AF2C"/>
</svg>
