<svg width="22" height="16" viewBox="0 0 22 16" fill="none" xmlns="http://www.w3.org/2000/svg">
<mask id="mask0_22_4690" style="mask-type:luminance" maskUnits="userSpaceOnUse" x="0" y="0" width="22" height="16">
<path d="M17.4618 0.236115H3.65513C1.64775 0.236115 0.0204468 1.86342 0.0204468 3.87079V11.6558C0.0204468 13.6631 1.64775 15.2904 3.65513 15.2904H17.4618C19.4692 15.2904 21.0965 13.6631 21.0965 11.6558V3.87079C21.0965 1.86342 19.4692 0.236115 17.4618 0.236115Z" fill="white"/>
</mask>
<g mask="url(#mask0_22_4690)">
<path d="M17.4618 0.236115H3.65513C1.64775 0.236115 0.0204468 1.86342 0.0204468 3.87079V11.6558C0.0204468 13.6631 1.64775 15.2904 3.65513 15.2904H17.4618C19.4692 15.2904 21.0965 13.6631 21.0965 11.6558V3.87079C21.0965 1.86342 19.4692 0.236115 17.4618 0.236115Z" fill="white"/>
<path fill-rule="evenodd" clip-rule="evenodd" d="M14.0714 0.236115H21.0968V15.2904H14.0714V0.236115Z" fill="#F93939"/>
<path fill-rule="evenodd" clip-rule="evenodd" d="M0.0204468 0.236115H7.0458V15.2904H0.0204468V0.236115Z" fill="#1A47B8"/>
</g>
</svg>
