<svg width="22" height="16" viewBox="0 0 22 16" fill="none" xmlns="http://www.w3.org/2000/svg">
<mask id="mask0_22_4680" style="mask-type:luminance" maskUnits="userSpaceOnUse" x="0" y="0" width="22" height="16">
<path d="M17.7397 0.237305H3.93396C1.92671 0.237305 0.299517 1.86436 0.299517 3.87144V11.6552C0.299517 13.6623 1.92671 15.2894 3.93396 15.2894H17.7397C19.747 15.2894 21.3742 13.6623 21.3742 11.6552V3.87144C21.3742 1.86436 19.747 0.237305 17.7397 0.237305Z" fill="white"/>
</mask>
<g mask="url(#mask0_22_4680)">
<path d="M17.7397 0.237305H3.93396C1.92671 0.237305 0.299517 1.86436 0.299517 3.87144V11.6552C0.299517 13.6623 1.92671 15.2894 3.93396 15.2894H17.7397C19.747 15.2894 21.3742 13.6623 21.3742 11.6552V3.87144C21.3742 1.86436 19.747 0.237305 17.7397 0.237305Z" fill="#F93939"/>
<path fill-rule="evenodd" clip-rule="evenodd" d="M0.299517 10.2721H21.3742V15.2894H0.299517V10.2721Z" fill="#FFDA2C"/>
<path fill-rule="evenodd" clip-rule="evenodd" d="M0.299517 0.237305H21.3742V5.25466H0.299517V0.237305Z" fill="#151515"/>
</g>
</svg>
