<svg width="36" height="37" viewBox="0 0 36 37" fill="none" xmlns="http://www.w3.org/2000/svg">
<path d="M20.6599 34.1118V8.51333L31.8439 19.6969C32.7377 20.5906 34.2046 20.5906 35.0984 19.6969C35.3108 19.4849 35.4794 19.2331 35.5944 18.9558C35.7094 18.6786 35.7685 18.3814 35.7685 18.0812C35.7685 17.7811 35.7094 17.4839 35.5944 17.2067C35.4794 16.9294 35.3108 16.6776 35.0984 16.4655L19.9952 1.36319C19.7831 1.15074 19.5313 0.982191 19.254 0.867189C18.9768 0.752188 18.6796 0.692993 18.3795 0.692993C18.0793 0.692993 17.7821 0.752188 17.5048 0.867189C17.2276 0.982191 16.9758 1.15074 16.7637 1.36319L1.63763 16.4427C1.42545 16.6548 1.25713 16.9067 1.1423 17.1839C1.02747 17.4612 0.968369 17.7583 0.968369 18.0583C0.968369 18.3584 1.02747 18.6555 1.1423 18.9327C1.25713 19.2099 1.42545 19.4618 1.63763 19.674C1.84981 19.8861 2.10171 20.0545 2.37894 20.1693C2.65617 20.2841 2.9533 20.3432 3.25337 20.3432C3.55344 20.3432 3.85057 20.2841 4.1278 20.1693C4.40503 20.0545 4.65693 19.8861 4.86911 19.674L16.0762 8.51333V34.1118C16.0762 35.3722 17.1075 36.4034 18.368 36.4034C19.6285 36.4034 20.6599 35.3722 20.6599 34.1118Z" fill="#3E57DA"/>
</svg>
