<svg width="35" height="36" viewBox="0 0 35 36" fill="none" xmlns="http://www.w3.org/2000/svg">
<path d="M15.1402 2.50836V28.1068L3.95612 16.9233C3.06231 16.0295 1.59547 16.0295 0.70166 16.9233C0.489208 17.1352 0.32066 17.387 0.205643 17.6643C0.0906258 17.9416 0.031498 18.2388 0.031498 18.5389C0.031498 18.8391 0.0906258 19.1363 0.205643 19.4134C0.32066 19.6907 0.489208 19.9425 0.70166 20.1546L15.8048 35.2569C16.0169 35.4694 16.2687 35.6379 16.546 35.7529C16.8232 35.8679 17.1204 35.9271 17.4206 35.9271C17.7207 35.9271 18.018 35.8679 18.2952 35.7529C18.5724 35.6379 18.8243 35.4694 19.0363 35.2569L34.1624 20.1775C34.3746 19.9653 34.5429 19.7134 34.6577 19.4362C34.7726 19.159 34.8317 18.8618 34.8317 18.5618C34.8317 18.2617 34.7726 17.9646 34.6577 17.6874C34.5429 17.4102 34.3746 17.1583 34.1624 16.9461C33.9502 16.734 33.6983 16.5657 33.4211 16.4508C33.1439 16.336 32.8467 16.2769 32.5467 16.2769C32.2466 16.2769 31.9495 16.336 31.6722 16.4508C31.395 16.5657 31.1431 16.734 30.9309 16.9461L19.7239 28.1068V2.50836C19.7239 1.24795 18.6925 0.216679 17.4321 0.216679C16.1715 0.216679 15.1402 1.24795 15.1402 2.50836Z" fill="#3E57DA"/>
</svg>
