<svg width="108" height="33" viewBox="0 0 108 33" fill="none" xmlns="http://www.w3.org/2000/svg">
<mask id="mask0_22_4537" style="mask-type:luminance" maskUnits="userSpaceOnUse" x="0" y="0" width="108" height="33">
<path d="M107.333 0.310059H0.666656V32.3101H107.333V0.310059Z" fill="white"/>
</mask>
<g mask="url(#mask0_22_4537)">
<path fill-rule="evenodd" clip-rule="evenodd" d="M32.3609 1.21533L20.5164 31.404H22.4981L34.3426 1.21533H32.3609ZM65.7533 1.21533L53.9315 31.404H55.9133L67.735 1.21533H65.7533ZM104.362 1.21533L92.54 31.404H94.5219L106.344 1.21533H104.362ZM44.0231 3.90321C39.2398 3.90321 36.0053 6.71017 36.0053 10.8562C36.0053 12.4148 36.5556 13.7653 37.5771 14.8325C38.5647 15.8312 39.7738 16.3305 41.9731 16.9871L44.4104 17.7203C47.3196 18.5751 48.6699 19.9736 48.6699 21.9853C48.6699 23.3226 48.114 24.4155 46.9843 25.2508C45.9911 25.9855 45.0491 26.2727 43.2259 26.2727C40.6767 26.2727 38.7114 25.6124 36.6431 24.1623L35.2081 26.6503C37.7583 28.1866 40.2247 28.8938 43.2259 28.8938C45.4855 28.8938 47.1364 28.4247 48.761 27.4056C50.9659 26.03 52.2005 23.8557 52.2005 21.5855C52.2005 20.0633 51.5791 18.4338 50.5605 17.2982C49.5409 16.1626 48.3874 15.5158 46.2099 14.8547L43.4082 13.9883C40.5554 13.0954 39.4676 12.0744 39.4676 10.2786C39.4676 7.96835 41.1924 6.52445 44.1827 6.52445C46.6063 6.52445 48.126 7.3046 50.1505 8.59035L51.5854 6.2801C49.2576 4.74112 46.8541 3.90321 44.0231 3.90321ZM71.835 4.39193V28.4052H75.1378V16.9205H85.5474V28.4052H88.9184V4.39193H85.5474V14.2326H75.1378V4.39193H71.835ZM1.65625 4.43634V28.4495H8.44407C12.1797 28.4495 13.1491 28.2461 14.5259 27.7387C17.0442 26.7862 18.5803 24.3151 18.5803 21.8076C18.5803 19.9949 17.9315 18.0605 16.2341 16.8095C15.477 16.2311 14.6597 15.88 13.4325 15.61C16.0054 14.6352 17.5097 12.9461 17.5097 10.5007C17.5097 7.93815 15.7531 5.84382 13.1363 4.96947C11.8279 4.53231 10.5816 4.43635 5.61961 4.43634H1.65625ZM4.89072 7.10202H8.44407C9.71876 7.10202 10.4595 7.17399 11.1319 7.34637C12.77 7.75332 13.8652 9.03551 13.8652 10.9006C13.8652 11.5563 13.7231 11.9712 13.478 12.5222C12.7809 14.0825 11.2622 14.5658 9.24133 14.5658H4.89072V7.10202ZM4.89072 17.2316H9.30962C10.5388 17.2316 11.5164 17.3578 12.2025 17.4982C13.898 17.8349 15.118 19.4751 15.118 21.5632C15.118 24.3933 13.7305 25.7616 10.2207 25.7616H4.89072V17.2316Z" fill="#2C374F"/>
</g>
</svg>
