<svg width="148" height="33" viewBox="0 0 148 33" fill="none" xmlns="http://www.w3.org/2000/svg">
<mask id="mask0_22_4480" style="mask-type:luminance" maskUnits="userSpaceOnUse" x="0" y="0" width="148" height="33">
<path d="M147.394 0.310059H0.605499V32.3101H147.394V0.310059Z" fill="white"/>
</mask>
<g mask="url(#mask0_22_4480)">
<path d="M101.041 0.310059C91.5513 0.310059 85.2525 7.34492 85.2525 16.2998C85.2525 25.7679 91.6364 32.2766 101.041 32.2766C110.265 32.2766 116.796 25.4753 116.796 16.2924C116.796 7.11117 110.264 0.310059 101.041 0.310059ZM47.0152 0.332632C44.0007 0.332632 40.1863 1.36741 37.38 3.66768C34.032 6.41243 31.4406 10.707 31.4406 16.4844C31.4406 21.466 33.0602 25.4782 35.9819 28.1958C38.842 30.8571 42.8875 32.3101 47.9038 32.3101C51.9417 32.3101 56.8189 30.7911 58.9107 29.502C59.6426 29.0511 59.8724 28.8575 59.6828 28.1206L58.3764 24.4335C58.2249 23.8288 57.552 23.6739 57.0053 23.9446C56.087 24.3945 55.4012 24.7485 54.4703 25.0907C52.6619 25.757 50.7909 26.2115 49.0098 26.2115C45.2596 26.2115 43.127 25.1956 41.4942 23.3208C40.4569 22.1304 39.8492 20.6214 39.6605 18.8779H60.3548C61.1075 18.8779 61.4431 18.3591 61.4431 17.4819V15.9954C61.4431 15.2712 61.4102 14.1344 61.3485 13.4545C60.9678 9.30118 59.4347 5.95973 56.8771 3.69569C54.4131 1.51129 51.105 0.332632 47.0152 0.332632ZM80.7541 0.362352C74.7786 0.362352 71.1294 1.72846 68.7878 4.73754C66.994 7.04506 66.6696 9.62608 66.6717 15.1482V30.304C66.7545 31.3841 67.1905 31.8891 68.203 31.8891H72.9305C74.0241 31.8891 74.4709 31.3207 74.4709 30.304V14.8656C74.4709 11.3875 74.5135 9.44667 75.7406 8.13403C76.796 7.00516 78.212 6.26664 81.1818 6.26664C81.7704 6.26664 83.1811 6.42147 83.6731 6.48121C83.8595 6.50388 84.011 6.51838 84.0909 6.51838C84.6031 6.51838 84.7811 6.33275 84.9455 5.68368L85.6547 2.20919C85.7857 1.49674 85.6765 0.94279 84.9645 0.774411C83.8818 0.519128 82.1582 0.362352 80.7541 0.362352ZM2.34783 0.775268C1.83377 0.775268 1.4642 1.18361 1.67581 1.87342C3.08451 6.4604 6.65743 11.9064 10.3622 16.3766C5.6411 20.616 2.33961 26.2547 0.682978 30.7855C0.43865 31.4519 0.817479 31.8873 1.18986 31.8873H6.76095C7.56294 31.8873 7.93068 31.6031 8.2985 30.7911C9.80438 27.475 12.0407 23.6485 14.9734 20.5452C17.6618 23.1252 20.0142 27.0486 21.5218 30.7911C21.9442 31.8257 22.4328 31.8873 23.064 31.8873H29.1383C30.3009 31.8873 30.4037 31.2593 30.1946 30.7115C27.8778 24.6246 22.9488 18.4115 20.1687 15.7871C22.7145 13.0786 27.3292 7.84726 29.3455 1.87342C29.6425 0.994415 29.0939 0.775268 28.6388 0.775268H23.5525C22.9358 0.775268 22.5237 0.989891 22.0677 1.87342C19.3285 7.02254 16.8626 10.0589 15.8008 11.1533C14.1278 9.1735 11.928 5.61216 10.3186 1.87342C9.9689 1.06231 9.5992 0.775268 8.89168 0.775268H2.34783ZM119.461 0.775268C118.949 0.775268 118.578 1.18361 118.789 1.87342C120.197 6.4604 123.769 11.9064 127.475 16.3766C122.755 20.616 119.453 26.2547 117.797 30.7855C117.553 31.4519 117.934 31.8873 118.304 31.8873H123.875C124.676 31.8873 125.044 31.6031 125.41 30.7911C126.917 27.475 129.153 23.6485 132.086 20.5452C134.776 23.1252 137.128 27.0486 138.634 30.7911C139.06 31.8257 139.547 31.8873 140.177 31.8873H146.251C147.413 31.8873 147.517 31.2593 147.308 30.7115C144.99 24.6246 140.061 18.4115 137.284 15.7871C139.828 13.0786 144.444 7.84726 146.459 1.87342C146.757 0.994415 146.208 0.775268 145.752 0.775268H140.667C140.05 0.775268 139.637 0.989891 139.181 1.87342C136.442 7.02254 133.976 10.0589 132.916 11.1533C131.241 9.1735 129.041 5.61216 127.431 1.87342C127.082 1.06231 126.71 0.775268 126.005 0.775268H119.461ZM101.045 6.16348C106.57 6.16348 108.652 10.9261 108.652 16.2944C108.652 21.6644 106.57 26.4303 101.045 26.4295C95.5184 26.4295 93.3896 21.6644 93.3896 16.2944C93.3896 10.927 95.5184 6.16348 101.045 6.16348ZM47.2741 6.1906C51.4077 6.1906 53.9328 8.98884 53.9328 13.1422V13.3305H39.6484C39.802 12.2976 40.0982 11.3162 40.5632 10.3846C41.8365 7.82457 44.2652 6.1906 47.2741 6.1906Z" fill="#474C56"/>
</g>
</svg>
