<svg width="144" height="33" viewBox="0 0 144 33" fill="none" xmlns="http://www.w3.org/2000/svg">
<mask id="mask0_22_4508" style="mask-type:luminance" maskUnits="userSpaceOnUse" x="0" y="0" width="144" height="33">
<path d="M143.111 0.310059H0.888885V32.2707H143.111V0.310059Z" fill="white"/>
</mask>
<g mask="url(#mask0_22_4508)">
<path fill-rule="evenodd" clip-rule="evenodd" d="M116.684 9.89423C117.228 10.8322 117.406 11.8993 117.464 13.099L117.542 14.6981V25.8796L117.62 27.4803C117.778 30.0945 119.706 32.0275 122.34 32.1919L123.933 32.2707V14.6981L124.012 13.099C124.077 11.9127 124.253 10.8255 124.805 9.8808C125.368 8.91187 126.175 8.10799 127.147 7.54984C128.118 6.9917 129.219 6.69895 130.34 6.701C131.46 6.70303 132.56 6.99979 133.53 7.56147C134.499 8.12314 135.304 8.92998 135.863 9.90094C136.406 10.8389 136.576 11.9262 136.641 13.099L136.72 14.693V25.8796L136.799 27.4803C136.963 30.1079 138.876 32.0408 141.519 32.1919L143.111 32.2707V13.099C143.111 9.70894 141.765 6.45764 139.368 4.06002C136.971 1.66239 133.721 0.314754 130.331 0.313419C128.516 0.311505 126.722 0.696828 125.069 1.44364C123.415 2.19046 121.94 3.28156 120.741 4.64408C119.542 3.2821 118.067 2.19126 116.414 1.44422C114.76 0.697185 112.967 0.311116 111.152 0.311741C108.498 0.311741 106.034 1.11713 103.994 2.50812C102.749 1.11881 99.9639 0.311741 98.3649 0.311741V32.2707L99.9639 32.1919C102.639 32.0157 104.571 30.1348 104.675 27.4803L104.761 25.8796V14.6981L104.84 13.099C104.907 11.8926 105.075 10.8322 105.62 9.88752C106.183 8.9192 106.99 8.11548 107.961 7.55667C108.932 6.99783 110.032 6.70345 111.152 6.70286C112.273 6.7031 113.374 6.99809 114.345 7.55823C115.316 8.11837 116.123 8.92398 116.684 9.89423ZM7.28001 32.1936L8.87904 32.2707H32.8479L32.769 30.6768C32.5525 28.0491 30.6917 26.1297 28.0557 25.9584L26.4567 25.8796H12.0771L31.2488 6.70118L31.17 5.10886C31.0458 2.45441 29.1062 0.53658 26.4567 0.390601L24.8577 0.318452L0.888885 0.311741L0.967747 1.91078C1.17748 4.51321 3.06513 6.47299 5.67929 6.624L7.28001 6.70286H21.6596L2.48792 25.8813L2.56678 27.4803C2.72451 30.1146 4.62558 32.0223 7.28001 32.1919V32.1936ZM92.0912 4.98972C93.5752 6.47353 94.7526 8.23515 95.5558 10.174C96.359 12.1128 96.7724 14.1909 96.7724 16.2896C96.7724 18.3882 96.359 20.4662 95.5558 22.4051C94.7526 24.3439 93.5752 26.1056 92.0912 27.5894C89.0928 30.5853 85.0276 32.2682 80.7889 32.2682C76.5501 32.2682 72.485 30.5853 69.4865 27.5894C63.2464 21.3493 63.2464 11.2298 69.4865 4.98972C70.9693 3.50642 72.7296 2.32971 74.6672 1.52677C76.6047 0.723827 78.6815 0.31039 80.7788 0.310062C82.8796 0.308604 84.9599 0.721313 86.901 1.52458C88.8421 2.32785 90.6058 3.50592 92.0912 4.9914V4.98972ZM87.5692 9.51502C89.3666 11.3138 90.3763 13.7526 90.3763 16.2954C90.3763 18.8382 89.3666 21.277 87.5692 23.0759C85.7705 24.8733 83.3317 25.8829 80.7889 25.8829C78.246 25.8829 75.8071 24.8733 74.0085 23.0759C72.2111 21.277 71.2014 18.8382 71.2014 16.2954C71.2014 13.7526 72.2111 11.3138 74.0085 9.51502C75.8071 7.71765 78.246 6.708 80.7889 6.708C83.3317 6.708 85.7705 7.71765 87.5692 9.51502ZM47.241 0.310062C49.3383 0.31061 51.4152 0.724312 53.3527 1.52754C55.2902 2.33077 57.0506 3.5078 58.5331 4.9914C64.775 11.2298 64.775 21.351 58.5331 27.5894C55.5348 30.5853 51.4695 32.2682 47.2309 32.2682C42.9922 32.2682 38.9269 30.5853 35.9285 27.5894C29.6883 21.3493 29.6883 11.2298 35.9285 4.98972C37.4113 3.50642 39.1717 2.32971 41.1092 1.52677C43.0467 0.723827 45.1234 0.31039 47.2208 0.310062H47.241ZM54.0112 9.51167C55.8091 11.3105 56.8191 13.7496 56.8191 16.2928C56.8191 18.8362 55.8091 21.2753 54.0112 23.0741C52.2125 24.8716 49.7737 25.8812 47.2309 25.8812C44.6879 25.8812 42.2492 24.8716 40.4504 23.0741C38.653 21.2755 37.6434 18.8366 37.6434 16.2937C37.6434 13.7509 38.653 11.3121 40.4504 9.51334C42.2492 7.71597 44.6879 6.70632 47.2309 6.70632C49.7737 6.70632 52.2125 7.71597 54.0112 9.51334V9.51167Z" fill="#2C374F"/>
</g>
</svg>
