<svg width="149" height="26" viewBox="0 0 149 26" fill="none" xmlns="http://www.w3.org/2000/svg">
<g clip-path="url(#clip0_22_5770)">
<g clip-path="url(#clip1_22_5770)">
<g clip-path="url(#clip2_22_5770)">
<path d="M138.492 13.9534C138.492 11.4155 139.845 9.69516 141.791 9.69516C143.991 9.69516 145.288 11.3025 145.288 13.9534C145.288 16.6042 143.991 18.2396 141.791 18.2396C139.846 18.2399 138.492 16.4915 138.492 13.9534ZM141.058 21.2854C142.891 21.2854 144.301 20.524 145.288 19.2551L145.57 21.0035H148.756V6.90344H145.57L145.288 8.65182C144.301 7.38278 142.891 6.62154 141.058 6.62154C137.279 6.62154 134.826 9.80812 134.826 13.9536C134.826 18.099 137.279 21.2854 141.058 21.2854ZM129.13 5.37988H132.683V1.9114H129.13V5.37988ZM129.13 21.0033H132.683V6.90344H129.13V21.0033ZM121.346 21.2854C124.956 21.2854 127.212 19.4806 127.212 16.6325C127.212 14.5176 126.112 13.1641 123.941 12.7409L120.698 12.1486C119.598 11.9512 119.09 11.5282 119.09 10.7951C119.09 9.97726 119.965 9.44156 121.234 9.44156C122.503 9.44156 123.405 10.0339 123.631 10.8798H126.987C126.733 8.28546 124.533 6.62154 121.29 6.62154C117.793 6.62154 115.622 8.34164 115.622 11.0489C115.622 13.1638 116.947 14.6584 119.373 15.1377L122.616 15.73C123.349 15.8711 123.744 16.3223 123.744 16.9427C123.744 17.9016 122.869 18.4656 121.375 18.4656C119.852 18.4656 118.893 17.7888 118.696 16.6325H115.171C115.34 19.5087 117.709 21.2854 121.346 21.2854ZM104.004 12.346C104.314 10.654 105.724 9.44156 107.388 9.44156C109.193 9.44156 110.321 10.4568 110.631 12.346H104.004ZM107.388 21.2854C110.941 21.2854 113.536 19.4242 113.761 16.6325H110.49C110.208 17.7322 109.136 18.4656 107.388 18.4656C105.555 18.4656 103.948 16.9427 103.92 14.8561H113.959C113.959 14.6023 113.987 14.3484 113.987 13.8691C113.987 9.41348 111.449 6.62176 107.388 6.62176C103.356 6.62176 100.536 9.58282 100.536 13.9538C100.536 18.3247 103.356 21.2854 107.388 21.2854ZM86.0126 21.0033H89.5658V12.8537C89.5658 10.9361 90.7784 9.69536 92.4138 9.69536C93.9648 9.69536 95.0082 10.767 95.0082 12.6281V21.0035H98.5614V12.205C98.5614 8.79288 96.6718 6.62134 93.711 6.62134C91.9062 6.62134 90.4398 7.35448 89.5656 8.59524V1.91016H86.0126V21.0033ZM80.5986 21.0033H83.9826V18.0705H81.8676C81.1344 18.0705 80.5986 17.5348 80.5986 16.8015V9.83622H83.9826V6.90344H80.5986V2.76014H77.0454V6.90344H74.6484V9.83622H77.0454V17.4501C77.0454 19.5087 78.54 21.0033 80.5986 21.0033ZM60.746 21.0033H64.299V12.8537C64.299 10.9361 65.5118 9.69536 67.1472 9.69536C68.6982 9.69536 69.7414 10.767 69.7414 12.6281V21.0035H73.2946V12.205C73.2946 8.79288 71.4052 6.62134 68.4444 6.62134C66.5832 6.62134 65.0886 7.41086 64.2144 8.7363L63.9326 6.90324H60.746V21.0033ZM46.9282 25.9102H50.5096C51.9762 25.9102 53.2168 25.0078 53.668 23.6262L59.195 6.90366H55.4444L52.5116 16.6325L49.5788 6.90366H45.8848L50.6506 21.3137C50.9326 22.1316 50.4816 23.0058 49.5226 23.0058H46.9284L46.9282 25.9102ZM39.7092 21.2854C43.3186 21.2854 45.5746 19.4806 45.5746 16.6325C45.5746 14.5176 44.475 13.1641 42.3034 12.7409L39.0604 12.1486C37.9608 11.9512 37.4532 11.5282 37.4532 10.7951C37.4532 9.97726 38.3274 9.44156 39.5964 9.44156C40.8654 9.44156 41.7678 10.0339 41.9934 10.8798H45.3492C45.0954 8.28546 42.8958 6.62154 39.6528 6.62154C36.156 6.62154 33.9846 8.34164 33.9846 11.0489C33.9846 13.1638 35.31 14.6584 37.7352 15.1377L40.9782 15.73C41.7114 15.8711 42.1062 16.3223 42.1062 16.9427C42.1062 17.9016 41.232 18.4656 39.7374 18.4656C38.2146 18.4656 37.2558 17.7888 37.0584 16.6325H33.5334C33.7026 19.5087 36.0712 21.2854 39.7092 21.2854Z" fill="#0D0F2C"/>
<path d="M4.81846 22.9338H20.2598C24.0638 22.9338 26.487 20.5951 26.8816 17.0164L27.6706 9.60568H22.3448L21.6122 16.3684C21.5276 17.2702 20.9642 17.7772 20.0342 17.7772H5.32568L4.81846 22.9338ZM5.32568 17.7772L6.05826 11.0145C6.14286 10.1127 6.70642 9.60568 7.63628 9.60568H22.3448L22.8522 4.44922H7.41072C3.60672 4.44922 1.18346 6.78808 0.788906 10.3665L0 17.7772H5.32568Z" fill="#3E57DA"/>
</g>
</g>
</g>
<defs>
<clipPath id="clip0_22_5770">
<rect width="148.8" height="24" fill="white" transform="translate(0 1.91016)"/>
</clipPath>
<clipPath id="clip1_22_5770">
<rect width="148.8" height="24" fill="white" transform="translate(0 1.91016)"/>
</clipPath>
<clipPath id="clip2_22_5770">
<rect width="148.8" height="24" fill="white" transform="translate(0 1.91016)"/>
</clipPath>
</defs>
</svg>
