<svg width="17" height="16" viewBox="0 0 17 16" fill="none" xmlns="http://www.w3.org/2000/svg">
<path fill-rule="evenodd" clip-rule="evenodd" d="M8.02974 1.59844C4.4944 1.59844 1.62844 4.4644 1.62844 7.99974C1.62844 11.5351 4.4944 14.401 8.02974 14.401C11.5651 14.401 14.431 11.5351 14.431 7.99974C14.431 4.4644 11.5651 1.59844 8.02974 1.59844ZM0.428436 7.99974C0.428436 3.80166 3.83166 0.398438 8.02974 0.398438C12.2278 0.398438 15.631 3.80166 15.631 7.99974C15.631 12.1978 12.2278 15.601 8.02974 15.601C3.83166 15.601 0.428436 12.1978 0.428436 7.99974ZM6.8425 7.41836C6.8425 7.08699 7.11113 6.81836 7.4425 6.81836H8.02594C8.35731 6.81836 8.62594 7.08699 8.62594 7.41836V10.9027C8.94966 10.9114 9.20938 11.1766 9.20938 11.5025C9.20938 11.8338 8.94076 12.1025 8.60938 12.1025H8.02594C7.69457 12.1025 7.42594 11.8338 7.42594 11.5025V8.01814C7.10223 8.00936 6.8425 7.74419 6.8425 7.41836ZM8.76079 4.79118C8.76079 5.27452 8.36897 5.66634 7.88563 5.66634C7.40229 5.66634 7.01047 5.27452 7.01047 4.79118C7.01047 4.30784 7.40229 3.91602 7.88563 3.91602C8.36897 3.91602 8.76079 4.30784 8.76079 4.79118Z" fill="#3E57DA"/>
</svg>
