<svg width="21" height="20" viewBox="0 0 21 20" fill="none" xmlns="http://www.w3.org/2000/svg">
<path d="M10.28 0.502441C8.35163 0.502441 6.4666 1.07427 4.86322 2.14561C3.25985 3.21695 2.01016 4.7397 1.27221 6.52128C0.534251 8.30284 0.341171 10.2632 0.717381 12.1545C1.09358 14.0458 2.02218 15.7831 3.38574 17.1467C4.74931 18.5103 6.48659 19.4389 8.37793 19.8151C10.2692 20.1913 12.2296 19.9982 14.0112 19.2602C15.7927 18.5223 17.3155 17.2726 18.3868 15.6692C19.4582 14.0658 20.03 12.1808 20.03 10.2524C20.027 7.6675 18.9988 5.18928 17.171 3.36145C15.3432 1.53362 12.8649 0.505431 10.28 0.502441ZM14.9236 8.54514L9.42313 13.7951C9.28323 13.9282 9.09763 14.0024 8.90453 14.0024C8.71153 14.0024 8.52583 13.9282 8.38603 13.7951L5.63648 11.1701C5.49283 11.0325 5.40968 10.8435 5.40527 10.6447C5.40087 10.4458 5.47558 10.2533 5.613 10.1095C5.75041 9.96574 5.9393 9.88234 6.13816 9.87764C6.33702 9.87304 6.52959 9.94744 6.67359 10.0847L8.90453 12.2153L13.8864 7.45972C14.0304 7.32248 14.223 7.24802 14.4219 7.25267C14.6207 7.25733 14.8096 7.34072 14.947 7.48454C15.0845 7.62836 15.1592 7.82084 15.1548 8.01974C15.1504 8.21854 15.0672 8.40754 14.9236 8.54514Z" fill="#3E57DA"/>
</svg>
