<svg width="16" height="17" viewBox="0 0 16 17" fill="none" xmlns="http://www.w3.org/2000/svg">
<path d="M13.4779 7.37706L3.66009 1.17229C3.49473 1.06771 3.3054 1.01059 3.1116 1.00679C2.91779 1.003 2.72651 1.05267 2.55743 1.15071C2.38836 1.24873 2.24759 1.39158 2.14961 1.56454C2.05164 1.73751 2 1.93434 2 2.13479V14.5455C2.00016 14.7459 2.0519 14.9426 2.14991 15.1155C2.24793 15.2883 2.38867 15.4311 2.55769 15.5291C2.72671 15.6271 2.91792 15.6768 3.11166 15.6731C3.3054 15.6693 3.4947 15.6124 3.66009 15.508L13.4779 9.30319C13.6374 9.20233 13.7691 9.06079 13.8606 8.89219C13.952 8.72353 14 8.53346 14 8.34013C14 8.14679 13.952 7.95673 13.8606 7.78806C13.7691 7.61946 13.6374 7.47793 13.4779 7.37706Z" fill="#0D0F2C"/>
</svg>
