<svg width="12" height="16" viewBox="0 0 12 16" fill="none" xmlns="http://www.w3.org/2000/svg">
<path d="M11.4779 7.20763L1.66009 1.00285C1.49473 0.89828 1.3054 0.841153 1.1116 0.83736C0.917793 0.833569 0.726513 0.88324 0.557433 0.981273C0.38836 1.0793 0.247593 1.22215 0.149613 1.39511C0.05164 1.56807 0 1.76491 0 1.96536V14.376C0.00016 14.5764 0.0519 14.7732 0.149913 14.946C0.247927 15.1189 0.388673 15.2616 0.557693 15.3596C0.726713 15.4576 0.91792 15.5074 1.11166 15.5036C1.3054 15.4999 1.4947 15.443 1.66009 15.3386L11.4779 9.13376C11.6374 9.03289 11.7691 8.89136 11.8606 8.72276C11.952 8.55409 12 8.36403 12 8.17069C12 7.97736 11.952 7.78729 11.8606 7.61863C11.7691 7.45003 11.6374 7.30849 11.4779 7.20763Z" fill="white"/>
</svg>
